<svg xmlns="http://www.w3.org/2000/svg" viewBox="0 0 1024 1024">
  <defs>
    <linearGradient id="dock-bg" x1="0" y1="0" x2="1" y2="1">
      <stop offset="0" stop-color="#1d4ed8"/>
      <stop offset="1" stop-color="#0ea5a4"/>
    </linearGradient>
  </defs>

  <rect x="96" y="96" width="832" height="832" rx="208" fill="url(#dock-bg)"/>

  <g transform="translate(128 128) scale(32)">
    <defs>
      <mask id="mdi-cutout-mask" x="0" y="0" width="24" height="24" maskUnits="userSpaceOnUse"
            maskContentUnits="userSpaceOnUse">
        <rect width="24" height="24" fill="black"/>
        <g transform="translate(-1.80 -1.80) scale(1.1500)">
          <path
              d="M2.6,10.59L8.38,4.8L10.07,6.5C9.83,7.35 10.22,8.28 11,8.73V14.27C10.4,14.61 10,15.26 10,16A2,2 0 0,0 12,18A2,2 0 0,0 14,16C14,15.26 13.6,14.61 13,14.27V9.41L15.07,11.5C15,11.65 15,11.82 15,12A2,2 0 0,0 17,14A2,2 0 0,0 19,12A2,2 0 0,0 17,10C16.82,10 16.65,10 16.5,10.07L13.93,7.5C14.19,6.57 13.71,5.55 12.78,5.16C12.35,5 11.9,4.96 11.5,5.07L9.8,3.38L10.59,2.6C11.37,1.81 12.63,1.81 13.41,2.6L21.4,10.59C22.19,11.37 22.19,12.63 21.4,13.41L13.41,21.4C12.63,22.19 11.37,22.19 10.59,21.4L2.6,13.41C1.81,12.63 1.81,11.37 2.6,10.59Z"
              fill="white"/>
        </g>
        <g transform="translate(0.83 6.61) scale(0.4500)">
          <path
              d="M12,18A6,6 0 0,1 6,12C6,11 6.25,10.03 6.7,9.2L5.24,7.74C4.46,8.97 4,10.43 4,12A8,8 0 0,0 12,20V23L16,19L12,15M12,4V1L8,5L12,9V6A6,6 0 0,1 18,12C18,13 17.75,13.97 17.3,14.8L18.76,16.26C19.54,15.03 20,13.57 20,12A8,8 0 0,0 12,4Z"
              fill="black" stroke="black" stroke-width="2.80" stroke-linecap="round" stroke-linejoin="round"/>
        </g>
      </mask>
    </defs>

    <rect width="24" height="24" fill="#ffffff" mask="url(#mdi-cutout-mask)"/>
    <g transform="translate(0.83 6.61) scale(0.4500)">
      <path
          d="M12,18A6,6 0 0,1 6,12C6,11 6.25,10.03 6.7,9.2L5.24,7.74C4.46,8.97 4,10.43 4,12A8,8 0 0,0 12,20V23L16,19L12,15M12,4V1L8,5L12,9V6A6,6 0 0,1 18,12C18,13 17.75,13.97 17.3,14.8L18.76,16.26C19.54,15.03 20,13.57 20,12A8,8 0 0,0 12,4Z"
          fill="#ffffff"/>
    </g>
  </g>
</svg>
